{
	"asset":{
		"generator":"Khronos glTF Blender I/O v5.0.21",
		"version":"2.0"
	},
	"scene":0,
	"scenes":[
		{
			"name":"Scene",
			"nodes":[
				0,
				1,
				2
			]
		}
	],
	"nodes":[
		{
			"mesh":0,
			"name":"R_wing",
			"translation":[
				0.00800000037997961,
				0,
				0
			]
		},
		{
			"mesh":1,
			"name":"Body"
		},
		{
			"mesh":2,
			"name":"L_wing",
			"translation":[
				-0.00800000037997961,
				0,
				0
			]
		}
	],
	"materials":[
		{
			"doubleSided":true,
			"name":"Material.001",
			"pbrMetallicRoughness":{
				"baseColorTexture":{
					"index":0
				},
				"metallicFactor":0,
				"roughnessFactor":0.505731999874115
			}
		}
	],
	"meshes":[
		{
			"name":"Plane.002",
			"primitives":[
				{
					"attributes":{
						"POSITION":0,
						"NORMAL":1,
						"TEXCOORD_0":2
					},
					"indices":3,
					"material":0
				}
			]
		},
		{
			"name":"Plane.003",
			"primitives":[
				{
					"attributes":{
						"POSITION":4,
						"NORMAL":5,
						"TEXCOORD_0":6
					},
					"indices":7,
					"material":0
				}
			]
		},
		{
			"name":"Plane.005",
			"primitives":[
				{
					"attributes":{
						"POSITION":8,
						"NORMAL":9,
						"TEXCOORD_0":10
					},
					"indices":11,
					"material":0
				}
			]
		}
	],
	"textures":[
		{
			"sampler":0,
			"source":0
		}
	],
	"images":[
		{
			"mimeType":"image/png",
			"name":"IMG_1708",
			"uri":"IMG_1708.png"
		}
	],
	"accessors":[
		{
			"bufferView":0,
			"componentType":5126,
			"count":89,
			"max":[
				0.5815626382827759,
				9.514719567960128e-05,
				0.4345166087150574
			],
			"min":[
				-0.0005267225205898285,
				-0.00033663251088000834,
				-0.42835235595703125
			],
			"type":"VEC3"
		},
		{
			"bufferView":1,
			"componentType":5126,
			"count":89,
			"type":"VEC3"
		},
		{
			"bufferView":2,
			"componentType":5126,
			"count":89,
			"type":"VEC2"
		},
		{
			"bufferView":3,
			"componentType":5123,
			"count":402,
			"type":"SCALAR"
		},
		{
			"bufferView":4,
			"componentType":5126,
			"count":208,
			"max":[
				0.04202102869749069,
				0.049602437764406204,
				0.16416297852993011
			],
			"min":[
				-0.04202102869749069,
				-0.030981067568063736,
				-0.29801708459854126
			],
			"type":"VEC3"
		},
		{
			"bufferView":5,
			"componentType":5126,
			"count":208,
			"type":"VEC3"
		},
		{
			"bufferView":6,
			"componentType":5126,
			"count":208,
			"type":"VEC2"
		},
		{
			"bufferView":7,
			"componentType":5123,
			"count":1212,
			"type":"SCALAR"
		},
		{
			"bufferView":8,
			"componentType":5126,
			"count":89,
			"max":[
				-0.0011062221601605415,
				9.514719567960128e-05,
				0.4345166087150574
			],
			"min":[
				-0.5831955671310425,
				-0.00033663251088000834,
				-0.42835235595703125
			],
			"type":"VEC3"
		},
		{
			"bufferView":9,
			"componentType":5126,
			"count":89,
			"type":"VEC3"
		},
		{
			"bufferView":10,
			"componentType":5126,
			"count":89,
			"type":"VEC2"
		},
		{
			"bufferView":11,
			"componentType":5123,
			"count":402,
			"type":"SCALAR"
		}
	],
	"bufferViews":[
		{
			"buffer":0,
			"byteLength":1068,
			"byteOffset":0,
			"target":34962
		},
		{
			"buffer":0,
			"byteLength":1068,
			"byteOffset":1068,
			"target":34962
		},
		{
			"buffer":0,
			"byteLength":712,
			"byteOffset":2136,
			"target":34962
		},
		{
			"buffer":0,
			"byteLength":804,
			"byteOffset":2848,
			"target":34963
		},
		{
			"buffer":0,
			"byteLength":2496,
			"byteOffset":3652,
			"target":34962
		},
		{
			"buffer":0,
			"byteLength":2496,
			"byteOffset":6148,
			"target":34962
		},
		{
			"buffer":0,
			"byteLength":1664,
			"byteOffset":8644,
			"target":34962
		},
		{
			"buffer":0,
			"byteLength":2424,
			"byteOffset":10308,
			"target":34963
		},
		{
			"buffer":0,
			"byteLength":1068,
			"byteOffset":12732,
			"target":34962
		},
		{
			"buffer":0,
			"byteLength":1068,
			"byteOffset":13800,
			"target":34962
		},
		{
			"buffer":0,
			"byteLength":712,
			"byteOffset":14868,
			"target":34962
		},
		{
			"buffer":0,
			"byteLength":804,
			"byteOffset":15580,
			"target":34963
		}
	],
	"samplers":[
		{
			"magFilter":9729,
			"minFilter":9987
		}
	],
	"buffers":[
		{
			"byteLength":16384,
			"uri":"Butterfly.bin"
		}
	]
}
