{
	"asset":{
		"generator":"Khronos glTF Blender I/O v5.0.21",
		"version":"2.0"
	},
	"scene":0,
	"scenes":[
		{
			"name":"Scene",
			"nodes":[
				0,
				1,
				2,
				3,
				4,
				5,
				6,
				7,
				8,
				9,
				10,
				11,
				12,
				13,
				14
			]
		}
	],
	"nodes":[
		{
			"mesh":0,
			"name":"Cube"
		},
		{
			"mesh":1,
			"name":"Cube.001"
		},
		{
			"mesh":2,
			"name":"Cube.004"
		},
		{
			"mesh":3,
			"name":"Cube.007"
		},
		{
			"mesh":4,
			"name":"Cube.002"
		},
		{
			"mesh":5,
			"name":"Cube.003"
		},
		{
			"mesh":6,
			"name":"Cube.005"
		},
		{
			"mesh":7,
			"name":"Cube.006"
		},
		{
			"mesh":8,
			"name":"Cylinder.001"
		},
		{
			"mesh":9,
			"name":"Cube.008"
		},
		{
			"mesh":10,
			"name":"Cube.009"
		},
		{
			"mesh":11,
			"name":"Cube.010"
		},
		{
			"mesh":12,
			"name":"Cube.011"
		},
		{
			"mesh":13,
			"name":"Cube.012"
		},
		{
			"mesh":14,
			"name":"Cube.013"
		}
	],
	"materials":[
		{
			"doubleSided":true,
			"name":"Material",
			"pbrMetallicRoughness":{
				"baseColorFactor":[
					0.3163626790046692,
					0.13110773265361786,
					0.08180002123117447,
					1
				],
				"metallicFactor":0,
				"roughnessFactor":0.5
			}
		},
		{
			"doubleSided":true,
			"name":"Material.001",
			"pbrMetallicRoughness":{
				"baseColorFactor":[
					0.5424301028251648,
					0.19638362526893616,
					0.09986643493175507,
					1
				],
				"metallicFactor":0,
				"roughnessFactor":0.5
			}
		},
		{
			"doubleSided":true,
			"name":"metal",
			"pbrMetallicRoughness":{
				"baseColorFactor":[
					0.4292835593223572,
					0.4292835593223572,
					0.4292835593223572,
					1
				],
				"metallicFactor":0.6415094137191772,
				"roughnessFactor":0.5
			}
		}
	],
	"meshes":[
		{
			"name":"Cube",
			"primitives":[
				{
					"attributes":{
						"POSITION":0,
						"NORMAL":1,
						"TEXCOORD_0":2
					},
					"indices":3,
					"material":0
				}
			]
		},
		{
			"name":"Cube.001",
			"primitives":[
				{
					"attributes":{
						"POSITION":4,
						"NORMAL":5,
						"TEXCOORD_0":6
					},
					"indices":7,
					"material":1
				}
			]
		},
		{
			"name":"Cube.004",
			"primitives":[
				{
					"attributes":{
						"POSITION":8,
						"NORMAL":9,
						"TEXCOORD_0":10
					},
					"indices":11,
					"material":1
				}
			]
		},
		{
			"name":"Cube.007",
			"primitives":[
				{
					"attributes":{
						"POSITION":12,
						"NORMAL":13,
						"TEXCOORD_0":14
					},
					"indices":15,
					"material":1
				}
			]
		},
		{
			"name":"Cube.008",
			"primitives":[
				{
					"attributes":{
						"POSITION":16,
						"NORMAL":17,
						"TEXCOORD_0":18
					},
					"indices":19,
					"material":1
				}
			]
		},
		{
			"name":"Cube.009",
			"primitives":[
				{
					"attributes":{
						"POSITION":20,
						"NORMAL":21,
						"TEXCOORD_0":22
					},
					"indices":23,
					"material":0
				}
			]
		},
		{
			"name":"Cube.010",
			"primitives":[
				{
					"attributes":{
						"POSITION":24,
						"NORMAL":25,
						"TEXCOORD_0":26
					},
					"indices":27,
					"material":0
				}
			]
		},
		{
			"name":"Cube.011",
			"primitives":[
				{
					"attributes":{
						"POSITION":28,
						"NORMAL":29,
						"TEXCOORD_0":30
					},
					"indices":31,
					"material":1
				}
			]
		},
		{
			"name":"Cylinder.001",
			"primitives":[
				{
					"attributes":{
						"POSITION":32,
						"NORMAL":33,
						"TEXCOORD_0":34
					},
					"indices":35,
					"material":2
				}
			]
		},
		{
			"name":"Cube.012",
			"primitives":[
				{
					"attributes":{
						"POSITION":36,
						"NORMAL":37,
						"TEXCOORD_0":38
					},
					"indices":39,
					"material":1
				}
			]
		},
		{
			"name":"Cube.013",
			"primitives":[
				{
					"attributes":{
						"POSITION":40,
						"NORMAL":41,
						"TEXCOORD_0":42
					},
					"indices":43,
					"material":1
				}
			]
		},
		{
			"name":"Cube.014",
			"primitives":[
				{
					"attributes":{
						"POSITION":44,
						"NORMAL":45,
						"TEXCOORD_0":46
					},
					"indices":47,
					"material":1
				}
			]
		},
		{
			"name":"Cube.015",
			"primitives":[
				{
					"attributes":{
						"POSITION":48,
						"NORMAL":49,
						"TEXCOORD_0":50
					},
					"indices":51,
					"material":1
				}
			]
		},
		{
			"name":"Cube.016",
			"primitives":[
				{
					"attributes":{
						"POSITION":52,
						"NORMAL":53,
						"TEXCOORD_0":54
					},
					"indices":55,
					"material":1
				}
			]
		},
		{
			"name":"Cube.017",
			"primitives":[
				{
					"attributes":{
						"POSITION":56,
						"NORMAL":57,
						"TEXCOORD_0":58
					},
					"indices":59,
					"material":1
				}
			]
		}
	],
	"accessors":[
		{
			"bufferView":0,
			"componentType":5126,
			"count":24,
			"max":[
				1,
				2.1037254333496094,
				1
			],
			"min":[
				-1,
				0.10372555255889893,
				-1
			],
			"type":"VEC3"
		},
		{
			"bufferView":1,
			"componentType":5126,
			"count":24,
			"type":"VEC3"
		},
		{
			"bufferView":2,
			"componentType":5126,
			"count":24,
			"type":"VEC2"
		},
		{
			"bufferView":3,
			"componentType":5123,
			"count":36,
			"type":"SCALAR"
		},
		{
			"bufferView":4,
			"componentType":5126,
			"count":384,
			"max":[
				1.0612491369247437,
				2.1822385787963867,
				1.0612491369247437
			],
			"min":[
				-1.0612491369247437,
				0.025212526321411133,
				-1.0612491369247437
			],
			"type":"VEC3"
		},
		{
			"bufferView":5,
			"componentType":5126,
			"count":384,
			"type":"VEC3"
		},
		{
			"bufferView":6,
			"componentType":5126,
			"count":384,
			"type":"VEC2"
		},
		{
			"bufferView":7,
			"componentType":5123,
			"count":528,
			"type":"SCALAR"
		},
		{
			"bufferView":8,
			"componentType":5126,
			"count":164,
			"max":[
				-0.5561090111732483,
				2.265909194946289,
				1.1199144124984741
			],
			"min":[
				-1.1234893798828125,
				2.0624518394470215,
				-1.1191319227218628
			],
			"type":"VEC3"
		},
		{
			"bufferView":9,
			"componentType":5126,
			"count":164,
			"type":"VEC3"
		},
		{
			"bufferView":10,
			"componentType":5126,
			"count":164,
			"type":"VEC2"
		},
		{
			"bufferView":11,
			"componentType":5123,
			"count":246,
			"type":"SCALAR"
		},
		{
			"bufferView":12,
			"componentType":5126,
			"count":28,
			"max":[
				1.051242709159851,
				2.1036555767059326,
				0.9058905839920044
			],
			"min":[
				-1.051242709159851,
				0.11806583404541016,
				-0.9027254581451416
			],
			"type":"VEC3"
		},
		{
			"bufferView":13,
			"componentType":5126,
			"count":28,
			"type":"VEC3"
		},
		{
			"bufferView":14,
			"componentType":5126,
			"count":28,
			"type":"VEC2"
		},
		{
			"bufferView":15,
			"componentType":5123,
			"count":48,
			"type":"SCALAR"
		},
		{
			"bufferView":16,
			"componentType":5126,
			"count":110,
			"max":[
				1.1173443794250488,
				0.16293054819107056,
				1.1299991607666016
			],
			"min":[
				0.5693746209144592,
				-0.02344781905412674,
				-1.1194865703582764
			],
			"type":"VEC3"
		},
		{
			"bufferView":17,
			"componentType":5126,
			"count":110,
			"type":"VEC3"
		},
		{
			"bufferView":18,
			"componentType":5126,
			"count":110,
			"type":"VEC2"
		},
		{
			"bufferView":19,
			"componentType":5123,
			"count":156,
			"type":"SCALAR"
		},
		{
			"bufferView":20,
			"componentType":5126,
			"count":160,
			"max":[
				1.0167720317840576,
				2.191439628601074,
				1.0404386520385742
			],
			"min":[
				-1.0167720317840576,
				0.03204333782196045,
				-1.0185012817382812
			],
			"type":"VEC3"
		},
		{
			"bufferView":21,
			"componentType":5126,
			"count":160,
			"type":"VEC3"
		},
		{
			"bufferView":22,
			"componentType":5126,
			"count":160,
			"type":"VEC2"
		},
		{
			"bufferView":23,
			"componentType":5123,
			"count":240,
			"type":"SCALAR"
		},
		{
			"bufferView":24,
			"componentType":5126,
			"count":160,
			"max":[
				1.0318074226379395,
				2.191439628601074,
				1.013181447982788
			],
			"min":[
				-1.0271323919296265,
				0.03204333782196045,
				-1.013181447982788
			],
			"type":"VEC3"
		},
		{
			"bufferView":25,
			"componentType":5126,
			"count":160,
			"type":"VEC3"
		},
		{
			"bufferView":26,
			"componentType":5126,
			"count":160,
			"type":"VEC2"
		},
		{
			"bufferView":27,
			"componentType":5123,
			"count":240,
			"type":"SCALAR"
		},
		{
			"bufferView":28,
			"componentType":5126,
			"count":44,
			"max":[
				0.9101582169532776,
				2.1451644897460938,
				1.0375759601593018
			],
			"min":[
				-0.8907233476638794,
				0.11935985088348389,
				-1.0375759601593018
			],
			"type":"VEC3"
		},
		{
			"bufferView":29,
			"componentType":5126,
			"count":44,
			"type":"VEC3"
		},
		{
			"bufferView":30,
			"componentType":5126,
			"count":44,
			"type":"VEC2"
		},
		{
			"bufferView":31,
			"componentType":5123,
			"count":72,
			"type":"SCALAR"
		},
		{
			"bufferView":32,
			"componentType":5126,
			"count":144,
			"max":[
				1.0247477293014526,
				2.285658121109009,
				1.0344136953353882
			],
			"min":[
				-1.0247477293014526,
				2.2516281604766846,
				-1.0344136953353882
			],
			"type":"VEC3"
		},
		{
			"bufferView":33,
			"componentType":5126,
			"count":144,
			"type":"VEC3"
		},
		{
			"bufferView":34,
			"componentType":5126,
			"count":144,
			"type":"VEC2"
		},
		{
			"bufferView":35,
			"componentType":5123,
			"count":240,
			"type":"SCALAR"
		},
		{
			"bufferView":36,
			"componentType":5126,
			"count":166,
			"max":[
				0.5693745613098145,
				2.265558958053589,
				1.0945528745651245
			],
			"min":[
				0.006345599889755249,
				2.081285238265991,
				-1.1274510622024536
			],
			"type":"VEC3"
		},
		{
			"bufferView":37,
			"componentType":5126,
			"count":166,
			"type":"VEC3"
		},
		{
			"bufferView":38,
			"componentType":5126,
			"count":166,
			"type":"VEC2"
		},
		{
			"bufferView":39,
			"componentType":5123,
			"count":252,
			"type":"SCALAR"
		},
		{
			"bufferView":40,
			"componentType":5126,
			"count":136,
			"max":[
				0.0063456036150455475,
				2.2530813217163086,
				1.1441174745559692
			],
			"min":[
				-0.5491538643836975,
				2.070991039276123,
				-1.1364991664886475
			],
			"type":"VEC3"
		},
		{
			"bufferView":41,
			"componentType":5126,
			"count":136,
			"type":"VEC3"
		},
		{
			"bufferView":42,
			"componentType":5126,
			"count":136,
			"type":"VEC2"
		},
		{
			"bufferView":43,
			"componentType":5123,
			"count":204,
			"type":"SCALAR"
		},
		{
			"bufferView":44,
			"componentType":5126,
			"count":144,
			"max":[
				1.1173443794250488,
				2.2589805126190186,
				1.1300021409988403
			],
			"min":[
				0.5693746209144592,
				2.069380521774292,
				-1.1194895505905151
			],
			"type":"VEC3"
		},
		{
			"bufferView":45,
			"componentType":5126,
			"count":144,
			"type":"VEC3"
		},
		{
			"bufferView":46,
			"componentType":5126,
			"count":144,
			"type":"VEC2"
		},
		{
			"bufferView":47,
			"componentType":5123,
			"count":216,
			"type":"SCALAR"
		},
		{
			"bufferView":48,
			"componentType":5126,
			"count":110,
			"max":[
				-0.5561090111732483,
				0.16974136233329773,
				1.1199108362197876
			],
			"min":[
				-1.1158690452575684,
				-0.030258633196353912,
				-1.119128942489624
			],
			"type":"VEC3"
		},
		{
			"bufferView":49,
			"componentType":5126,
			"count":110,
			"type":"VEC3"
		},
		{
			"bufferView":50,
			"componentType":5126,
			"count":110,
			"type":"VEC2"
		},
		{
			"bufferView":51,
			"componentType":5123,
			"count":156,
			"type":"SCALAR"
		},
		{
			"bufferView":52,
			"componentType":5126,
			"count":110,
			"max":[
				0.0063456036150455475,
				0.1580994576215744,
				1.1003159284591675
			],
			"min":[
				-0.5491538643836975,
				-0.018616721034049988,
				-1.121681809425354
			],
			"type":"VEC3"
		},
		{
			"bufferView":53,
			"componentType":5126,
			"count":110,
			"type":"VEC3"
		},
		{
			"bufferView":54,
			"componentType":5126,
			"count":110,
			"type":"VEC2"
		},
		{
			"bufferView":55,
			"componentType":5123,
			"count":156,
			"type":"SCALAR"
		},
		{
			"bufferView":56,
			"componentType":5126,
			"count":96,
			"max":[
				0.5693746209144592,
				0.1696498841047287,
				1.0993157625198364
			],
			"min":[
				0.0063456036150455475,
				-0.030167147517204285,
				-1.1226820945739746
			],
			"type":"VEC3"
		},
		{
			"bufferView":57,
			"componentType":5126,
			"count":96,
			"type":"VEC3"
		},
		{
			"bufferView":58,
			"componentType":5126,
			"count":96,
			"type":"VEC2"
		},
		{
			"bufferView":59,
			"componentType":5123,
			"count":132,
			"type":"SCALAR"
		}
	],
	"bufferViews":[
		{
			"buffer":0,
			"byteLength":288,
			"byteOffset":0,
			"target":34962
		},
		{
			"buffer":0,
			"byteLength":288,
			"byteOffset":288,
			"target":34962
		},
		{
			"buffer":0,
			"byteLength":192,
			"byteOffset":576,
			"target":34962
		},
		{
			"buffer":0,
			"byteLength":72,
			"byteOffset":768,
			"target":34963
		},
		{
			"buffer":0,
			"byteLength":4608,
			"byteOffset":840,
			"target":34962
		},
		{
			"buffer":0,
			"byteLength":4608,
			"byteOffset":5448,
			"target":34962
		},
		{
			"buffer":0,
			"byteLength":3072,
			"byteOffset":10056,
			"target":34962
		},
		{
			"buffer":0,
			"byteLength":1056,
			"byteOffset":13128,
			"target":34963
		},
		{
			"buffer":0,
			"byteLength":1968,
			"byteOffset":14184,
			"target":34962
		},
		{
			"buffer":0,
			"byteLength":1968,
			"byteOffset":16152,
			"target":34962
		},
		{
			"buffer":0,
			"byteLength":1312,
			"byteOffset":18120,
			"target":34962
		},
		{
			"buffer":0,
			"byteLength":492,
			"byteOffset":19432,
			"target":34963
		},
		{
			"buffer":0,
			"byteLength":336,
			"byteOffset":19924,
			"target":34962
		},
		{
			"buffer":0,
			"byteLength":336,
			"byteOffset":20260,
			"target":34962
		},
		{
			"buffer":0,
			"byteLength":224,
			"byteOffset":20596,
			"target":34962
		},
		{
			"buffer":0,
			"byteLength":96,
			"byteOffset":20820,
			"target":34963
		},
		{
			"buffer":0,
			"byteLength":1320,
			"byteOffset":20916,
			"target":34962
		},
		{
			"buffer":0,
			"byteLength":1320,
			"byteOffset":22236,
			"target":34962
		},
		{
			"buffer":0,
			"byteLength":880,
			"byteOffset":23556,
			"target":34962
		},
		{
			"buffer":0,
			"byteLength":312,
			"byteOffset":24436,
			"target":34963
		},
		{
			"buffer":0,
			"byteLength":1920,
			"byteOffset":24748,
			"target":34962
		},
		{
			"buffer":0,
			"byteLength":1920,
			"byteOffset":26668,
			"target":34962
		},
		{
			"buffer":0,
			"byteLength":1280,
			"byteOffset":28588,
			"target":34962
		},
		{
			"buffer":0,
			"byteLength":480,
			"byteOffset":29868,
			"target":34963
		},
		{
			"buffer":0,
			"byteLength":1920,
			"byteOffset":30348,
			"target":34962
		},
		{
			"buffer":0,
			"byteLength":1920,
			"byteOffset":32268,
			"target":34962
		},
		{
			"buffer":0,
			"byteLength":1280,
			"byteOffset":34188,
			"target":34962
		},
		{
			"buffer":0,
			"byteLength":480,
			"byteOffset":35468,
			"target":34963
		},
		{
			"buffer":0,
			"byteLength":528,
			"byteOffset":35948,
			"target":34962
		},
		{
			"buffer":0,
			"byteLength":528,
			"byteOffset":36476,
			"target":34962
		},
		{
			"buffer":0,
			"byteLength":352,
			"byteOffset":37004,
			"target":34962
		},
		{
			"buffer":0,
			"byteLength":144,
			"byteOffset":37356,
			"target":34963
		},
		{
			"buffer":0,
			"byteLength":1728,
			"byteOffset":37500,
			"target":34962
		},
		{
			"buffer":0,
			"byteLength":1728,
			"byteOffset":39228,
			"target":34962
		},
		{
			"buffer":0,
			"byteLength":1152,
			"byteOffset":40956,
			"target":34962
		},
		{
			"buffer":0,
			"byteLength":480,
			"byteOffset":42108,
			"target":34963
		},
		{
			"buffer":0,
			"byteLength":1992,
			"byteOffset":42588,
			"target":34962
		},
		{
			"buffer":0,
			"byteLength":1992,
			"byteOffset":44580,
			"target":34962
		},
		{
			"buffer":0,
			"byteLength":1328,
			"byteOffset":46572,
			"target":34962
		},
		{
			"buffer":0,
			"byteLength":504,
			"byteOffset":47900,
			"target":34963
		},
		{
			"buffer":0,
			"byteLength":1632,
			"byteOffset":48404,
			"target":34962
		},
		{
			"buffer":0,
			"byteLength":1632,
			"byteOffset":50036,
			"target":34962
		},
		{
			"buffer":0,
			"byteLength":1088,
			"byteOffset":51668,
			"target":34962
		},
		{
			"buffer":0,
			"byteLength":408,
			"byteOffset":52756,
			"target":34963
		},
		{
			"buffer":0,
			"byteLength":1728,
			"byteOffset":53164,
			"target":34962
		},
		{
			"buffer":0,
			"byteLength":1728,
			"byteOffset":54892,
			"target":34962
		},
		{
			"buffer":0,
			"byteLength":1152,
			"byteOffset":56620,
			"target":34962
		},
		{
			"buffer":0,
			"byteLength":432,
			"byteOffset":57772,
			"target":34963
		},
		{
			"buffer":0,
			"byteLength":1320,
			"byteOffset":58204,
			"target":34962
		},
		{
			"buffer":0,
			"byteLength":1320,
			"byteOffset":59524,
			"target":34962
		},
		{
			"buffer":0,
			"byteLength":880,
			"byteOffset":60844,
			"target":34962
		},
		{
			"buffer":0,
			"byteLength":312,
			"byteOffset":61724,
			"target":34963
		},
		{
			"buffer":0,
			"byteLength":1320,
			"byteOffset":62036,
			"target":34962
		},
		{
			"buffer":0,
			"byteLength":1320,
			"byteOffset":63356,
			"target":34962
		},
		{
			"buffer":0,
			"byteLength":880,
			"byteOffset":64676,
			"target":34962
		},
		{
			"buffer":0,
			"byteLength":312,
			"byteOffset":65556,
			"target":34963
		},
		{
			"buffer":0,
			"byteLength":1152,
			"byteOffset":65868,
			"target":34962
		},
		{
			"buffer":0,
			"byteLength":1152,
			"byteOffset":67020,
			"target":34962
		},
		{
			"buffer":0,
			"byteLength":768,
			"byteOffset":68172,
			"target":34962
		},
		{
			"buffer":0,
			"byteLength":264,
			"byteOffset":68940,
			"target":34963
		}
	],
	"buffers":[
		{
			"byteLength":69204,
			"uri":"crate.bin"
		}
	]
}
